ply
format ascii 1.0
comment Created by Blender 3.0.1 - www.blender.org
element vertex 114
property float x
property float y
property float z
property float nx
property float ny
property float nz
property float s
property float t
element face 30
property list uchar uint vertex_indices
end_header
1.000000 1.000000 1.000000 0.000000 -0.000000 1.000000 0.625000 0.500000
-1.000000 1.000000 1.000000 0.000000 -0.000000 1.000000 0.875000 0.500000
-1.000000 -1.000000 1.000000 0.000000 -0.000000 1.000000 0.875000 0.750000
1.000000 -1.000000 1.000000 0.000000 -0.000000 1.000000 0.625000 0.750000
1.000000 -1.000000 -1.000000 0.000000 -1.000000 0.000000 0.375000 0.750000
1.000000 -1.000000 1.000000 0.000000 -1.000000 0.000000 0.625000 0.750000
-1.000000 -1.000000 1.000000 0.000000 -1.000000 0.000000 0.625000 1.000000
-1.000000 -1.000000 -1.000000 0.000000 -1.000000 0.000000 0.375000 1.000000
-1.000000 -1.000000 -1.000000 -1.000000 -0.000000 0.000000 0.375000 0.000000
-1.000000 -1.000000 1.000000 -1.000000 -0.000000 0.000000 0.625000 0.000000
-1.000000 1.000000 1.000000 -1.000000 -0.000000 0.000000 0.625000 0.250000
-1.000000 1.000000 -1.000000 -1.000000 -0.000000 0.000000 0.375000 0.250000
-1.000000 1.000000 -1.000000 0.000000 0.000000 -1.000000 0.125000 0.500000
1.000000 1.000000 -1.000000 0.000000 0.000000 -1.000000 0.375000 0.500000
1.000000 -1.000000 -1.000000 0.000000 0.000000 -1.000000 0.375000 0.750000
-1.000000 -1.000000 -1.000000 0.000000 0.000000 -1.000000 0.125000 0.750000
1.000000 1.000000 -1.000000 1.000000 -0.000000 0.000000 0.375000 0.500000
1.000000 1.000000 1.000000 1.000000 -0.000000 0.000000 0.625000 0.500000
1.000000 -1.000000 1.000000 1.000000 -0.000000 0.000000 0.625000 0.750000
1.000000 -1.000000 -1.000000 1.000000 -0.000000 0.000000 0.375000 0.750000
-1.000000 1.000000 -1.000000 0.000000 1.000000 0.000000 0.375000 0.250000
-1.000000 1.000000 1.000000 0.000000 1.000000 0.000000 0.625000 0.250000
1.000000 1.000000 1.000000 0.000000 1.000000 0.000000 0.625000 0.500000
1.000000 1.000000 -1.000000 0.000000 1.000000 0.000000 0.375000 0.500000
-5.125067 -6.992651 -0.997659 -1.000000 -0.000000 0.000000 0.375000 0.000000
-5.125067 -6.992651 4.997659 -1.000000 -0.000000 0.000000 0.625000 0.000000
-5.125067 6.992651 4.997659 -1.000000 -0.000000 0.000000 0.625000 0.250000
-5.125067 6.992651 -0.997659 -1.000000 -0.000000 0.000000 0.375000 0.250000
-5.125067 6.992651 -0.997659 0.000000 1.000000 0.000000 0.375000 0.250000
-5.125067 6.992651 4.997659 0.000000 1.000000 0.000000 0.625000 0.250000
-4.874933 6.992651 4.997659 0.000000 1.000000 0.000000 0.625000 0.500000
-4.874933 6.992651 -0.997659 0.000000 1.000000 0.000000 0.375000 0.500000
-4.874933 6.992651 -0.997659 1.000000 -0.000000 0.000000 0.375000 0.500000
-4.874933 6.992651 4.997659 1.000000 -0.000000 0.000000 0.625000 0.500000
-4.874933 -6.992651 4.997659 1.000000 -0.000000 0.000000 0.625000 0.750000
-4.874933 -6.992651 -0.997659 1.000000 -0.000000 0.000000 0.375000 0.750000
-4.874933 -6.992651 -0.997659 0.000000 -1.000000 0.000000 0.375000 0.750000
-4.874933 -6.992651 4.997659 0.000000 -1.000000 0.000000 0.625000 0.750000
-5.125067 -6.992651 4.997659 0.000000 -1.000000 0.000000 0.625000 1.000000
-5.125067 -6.992651 -0.997659 0.000000 -1.000000 0.000000 0.375000 1.000000
-5.125067 6.992651 -0.997659 0.000000 0.000000 -1.000000 0.125000 0.500000
-4.874933 6.992651 -0.997659 0.000000 0.000000 -1.000000 0.375000 0.500000
-4.874933 -6.992651 -0.997659 0.000000 0.000000 -1.000000 0.375000 0.750000
-5.125067 -6.992651 -0.997659 0.000000 0.000000 -1.000000 0.125000 0.750000
-4.874933 6.992651 4.997659 0.000000 -0.000000 1.000000 0.625000 0.500000
-5.125067 6.992651 4.997659 0.000000 -0.000000 1.000000 0.875000 0.500000
-5.125067 -6.992651 4.997659 0.000000 -0.000000 1.000000 0.875000 0.750000
-4.874933 -6.992651 4.997659 0.000000 -0.000000 1.000000 0.625000 0.750000
-4.980191 -7.004571 -1.162626 -1.000000 -0.000000 0.000000 0.375000 0.000000
-4.980191 -7.004571 -0.837374 -1.000000 -0.000000 0.000000 0.625000 0.000000
-4.980191 7.004571 -0.837374 -1.000000 -0.000000 0.000000 0.625000 0.250000
-4.980191 7.004571 -1.162626 -1.000000 -0.000000 0.000000 0.375000 0.250000
-4.980191 7.004571 -1.162626 0.000000 1.000000 0.000000 0.375000 0.250000
-4.980191 7.004571 -0.837374 0.000000 1.000000 0.000000 0.625000 0.250000
4.980191 7.004571 -0.837374 0.000000 1.000000 0.000000 0.625000 0.500000
4.980191 7.004571 -1.162626 0.000000 1.000000 0.000000 0.375000 0.500000
4.980191 7.004571 -1.162626 1.000000 -0.000000 0.000000 0.375000 0.500000
4.980191 7.004571 -0.837374 1.000000 -0.000000 0.000000 0.625000 0.500000
4.980191 -7.004571 -0.837374 1.000000 -0.000000 0.000000 0.625000 0.750000
4.980191 -7.004571 -1.162626 1.000000 -0.000000 0.000000 0.375000 0.750000
4.980191 -7.004571 -1.162626 0.000000 -1.000000 0.000000 0.375000 0.750000
4.980191 -7.004571 -0.837374 0.000000 -1.000000 0.000000 0.625000 0.750000
-4.980191 -7.004571 -0.837374 0.000000 -1.000000 0.000000 0.625000 1.000000
-4.980191 -7.004571 -1.162626 0.000000 -1.000000 0.000000 0.375000 1.000000
-4.980191 7.004571 -1.162626 0.000000 0.000000 -1.000000 0.125000 0.500000
4.980191 7.004571 -1.162626 0.000000 0.000000 -1.000000 0.375000 0.500000
4.980191 -7.004571 -1.162626 0.000000 0.000000 -1.000000 0.375000 0.750000
-4.980191 -7.004571 -1.162626 0.000000 0.000000 -1.000000 0.125000 0.750000
4.980191 7.004571 -0.837374 0.000000 -0.000000 1.000000 0.625000 0.500000
-4.980191 7.004571 -0.837374 0.000000 -0.000000 1.000000 0.875000 0.500000
-4.980191 -7.004571 -0.837374 0.000000 -0.000000 1.000000 0.875000 0.750000
4.980191 -7.004571 -0.837374 0.000000 -0.000000 1.000000 0.625000 0.750000
3.728920 8.504541 0.000000 0.000000 0.000000 0.000000 0.375000 0.000000
3.728920 8.504541 0.000000 0.000000 0.000000 0.000000 0.625000 0.000000
3.728920 8.576048 0.000000 0.000000 0.000000 0.000000 0.625000 0.250000
3.728920 8.576048 0.000000 0.000000 0.000000 0.000000 0.375000 0.250000
3.827417 8.576048 0.000000 0.000000 0.000000 0.000000 0.625000 0.500000
3.827417 8.576048 0.000000 0.000000 0.000000 0.000000 0.375000 0.500000
3.827417 8.504541 0.000000 0.000000 0.000000 0.000000 0.625000 0.750000
3.827417 8.504541 0.000000 0.000000 0.000000 0.000000 0.375000 0.750000
3.728920 8.504541 0.000000 0.000000 0.000000 0.000000 0.625000 1.000000
3.728920 8.504541 0.000000 0.000000 0.000000 0.000000 0.375000 1.000000
3.728920 8.576048 0.000000 0.000000 0.000000 -1.000000 0.125000 0.500000
3.827417 8.576048 0.000000 0.000000 0.000000 -1.000000 0.375000 0.500000
3.827417 8.504541 0.000000 0.000000 0.000000 -1.000000 0.375000 0.750000
3.728920 8.504541 0.000000 0.000000 0.000000 -1.000000 0.125000 0.750000
3.827417 8.576048 0.000000 0.000000 -0.000000 1.000000 0.625000 0.500000
3.728920 8.576048 0.000000 0.000000 -0.000000 1.000000 0.875000 0.500000
3.728920 8.504541 0.000000 0.000000 -0.000000 1.000000 0.875000 0.750000
3.827417 8.504541 0.000000 0.000000 -0.000000 1.000000 0.625000 0.750000
-5.131071 6.628669 -0.959585 -1.000000 -0.000000 0.000000 0.375000 0.000000
-5.131071 6.628669 4.959585 -1.000000 -0.000000 0.000000 0.625000 0.000000
-5.131071 6.871331 4.959585 -1.000000 -0.000000 0.000000 0.625000 0.250000
-5.131071 6.871331 -0.959585 -1.000000 -0.000000 0.000000 0.375000 0.250000
-5.131071 6.871331 -0.959585 0.000000 1.000000 0.000000 0.375000 0.250000
-5.131071 6.871331 4.959585 0.000000 1.000000 0.000000 0.625000 0.250000
5.131071 6.871331 4.959585 0.000000 1.000000 0.000000 0.625000 0.500000
5.131071 6.871331 -0.959585 0.000000 1.000000 0.000000 0.375000 0.500000
5.131071 6.871331 -0.959585 1.000000 -0.000000 0.000000 0.375000 0.500000
5.131071 6.871331 4.959585 1.000000 -0.000000 0.000000 0.625000 0.500000
5.131071 6.628669 4.959585 1.000000 -0.000000 0.000000 0.625000 0.750000
5.131071 6.628669 -0.959585 1.000000 -0.000000 0.000000 0.375000 0.750000
5.131071 6.628669 -0.959585 0.000000 -1.000000 0.000000 0.375000 0.750000
5.131071 6.628669 4.959585 0.000000 -1.000000 0.000000 0.625000 0.750000
-5.131071 6.628669 4.959585 0.000000 -1.000000 0.000000 0.625000 1.000000
-5.131071 6.628669 -0.959585 0.000000 -1.000000 0.000000 0.375000 1.000000
-5.131071 6.871331 -0.959585 0.000000 0.000000 -1.000000 0.125000 0.500000
5.131071 6.871331 -0.959585 0.000000 0.000000 -1.000000 0.375000 0.500000
5.131071 6.628669 -0.959585 0.000000 0.000000 -1.000000 0.375000 0.750000
-5.131071 6.628669 -0.959585 0.000000 0.000000 -1.000000 0.125000 0.750000
5.131071 6.871331 4.959585 0.000000 -0.000000 1.000000 0.625000 0.500000
-5.131071 6.871331 4.959585 0.000000 -0.000000 1.000000 0.875000 0.500000
-5.131071 6.628669 4.959585 0.000000 -0.000000 1.000000 0.875000 0.750000
5.131071 6.628669 4.959585 0.000000 -0.000000 1.000000 0.625000 0.750000
4 0 1 2 3
4 4 5 6 7
4 8 9 10 11
4 12 13 14 15
4 16 17 18 19
4 20 21 22 23
4 24 25 26 27
4 28 29 30 31
4 32 33 34 35
4 36 37 38 39
4 40 41 42 43
4 44 45 46 47
4 48 49 50 51
4 52 53 54 55
4 56 57 58 59
4 60 61 62 63
4 64 65 66 67
4 68 69 70 71
4 72 73 74 75
4 75 74 76 77
4 77 76 78 79
4 79 78 80 81
4 82 83 84 85
4 86 87 88 89
4 90 91 92 93
4 94 95 96 97
4 98 99 100 101
4 102 103 104 105
4 106 107 108 109
4 110 111 112 113
